<svg id="Camada_1" data-name="Camada 1" xmlns="http://www.w3.org/2000/svg" viewBox="0 0 300 300"><defs><style>.cls-1{fill:#030303;}</style></defs><title>data de nascimento </title><path class="cls-1" d="M174.92,283.48H38.26c-17.58,0-31.79-11.84-34.58-28.79A35.79,35.79,0,0,1,3.3,249q0-90.6,0-181.21c0-20.16,14.92-34.83,35.45-34.88h7.8c2.42,0,4.46,0,6.34,0-.06-3.87,0-7.76,0-11.53V18.82c0-5.89,4.06-10.21,9.59-10.28h.14c5.56,0,9.76,4.41,9.78,10.27v2.51c0,3.79,0,7.7,0,11.58q38.64,0,77.26,0,38.44,0,76.9,0c-.05-3.79,0-7.6,0-11.31V18.83c0-5.87,4.22-10.29,9.78-10.29h.11C242,8.6,246,12.91,246,18.8v2.44c0,3.81,0,7.74,0,11.65,2.05,0,4.21,0,6.72,0l6.4,0h1.44c20,.09,35,15,35,34.65,0,24.75,0,131.2,0,131.2,0,.51,0,1,.05,1.54l0,1.07,0,.22-.09.75a8.33,8.33,0,0,0-.1,1q0,14.4,0,28.79a5.65,5.65,0,0,0,.09.78c0,.23.07.46.1.69l0,.2V234c0,1.78,0,3.56,0,5.34,0,3.91,0,7.94-.2,12-1,18.35-15.91,32.21-34.65,32.23l-35.28,0ZM22.7,119q0,50.13,0,100.28v29.94a13.35,13.35,0,0,0,1.34,6.25c3,5.85,7.72,8.7,14.44,8.7H248.77q6,0,12.06,0c8.43,0,14.69-5.68,15.23-13.72.25-3.7.2-54,.17-90.73,0-16.73,0-31.72,0-40.69H173.64Q98.18,119.07,22.7,119ZM38.78,52.12c-9.74,0-16,6.21-16,15.77,0,3.39,0,6.77,0,10.16,0,7.15,0,14.53-.05,21.81q42.06-.06,84.09,0H276.21c0-4.54,0-9.08,0-13.48,0-6.49,0-13.2-.08-19.79C276,58.4,269.51,52.21,261,52.13h-9.91c-2,0-3.61,0-5.11,0,.06,4,0,8,0,11.84V66.1c0,6.09-4,10.35-9.74,10.35s-9.75-4.26-9.77-10.34l0-3c0-3.62,0-7.36,0-11.08q-26.16,0-52.28,0H114.83q-21.22,0-42.46,0c.07,4.35,0,8.74,0,13v1.18c0,6-4,10.15-9.66,10.2-5.81,0-9.82-4.23-9.84-10.28v-2c0-3.94,0-8,0-12-1.63,0-3.35,0-5.45,0l-7.72,0Z"/><path class="cls-1" d="M292.52,201.22c-.07.68-.2,1.37-.21,2.05q0,14.41,0,28.81a16.72,16.72,0,0,0,.21,1.84c-.05,5.71.11,11.44-.21,17.14-.92,16.72-14.4,29.2-31.46,29.22q-43,0-85.92,0-68.32,0-136.66,0c-16,0-28.91-10.76-31.43-26.12A32.35,32.35,0,0,1,6.49,249q0-90.6,0-181.21c0-18.35,13.58-31.64,32.28-31.69C43.88,36,49,36,54.11,36.1c1.62,0,2-.45,2-2-.1-5.09-.05-10.18,0-15.27,0-4.14,2.68-7.06,6.44-7.11s6.68,2.92,6.69,7.1c0,5.1,0,10.19,0,15.28,0,1.47.23,2,1.92,2q78.36-.08,156.71,0c1.67,0,2-.49,1.94-2-.09-5.09-.05-10.18,0-15.27,0-4.2,2.81-7.16,6.67-7.12s6.44,3,6.46,7.09c0,5.1.06,10.19,0,15.28,0,1.52.33,2,2,2C250,36,255.3,36,260.56,36.05c18.24.09,31.86,13.54,31.86,31.47q0,65.6,0,131.2C292.44,199.55,292.49,200.38,292.52,201.22ZM279.4,117.48c0-1.58-.72-1.6-1.92-1.6q-128,0-256,0c-1.69,0-1.95.54-1.95,2q.06,65.69,0,131.39a16.69,16.69,0,0,0,1.69,7.7c3.56,7,9.34,10.44,17.28,10.44H231.86c9.66,0,19.32,0,29,0,10,0,17.74-6.91,18.39-16.69C279.61,245.14,279.35,145.24,279.4,117.48ZM149.52,103H277.23c1.1,0,2.2.33,2.18-1.57-.09-11.65.08-23.3-.09-34.94-.15-9.88-8.19-17.46-18.27-17.55-5.4,0-10.8.08-16.2-.06-1.81,0-2.07.61-2,2.14.09,5,.05,10,0,15.07,0,4.34-2.62,7.17-6.55,7.17s-6.57-2.8-6.58-7.16c0-5-.1-10,0-15.07.05-1.78-.49-2.14-2.23-2.14q-42.32.09-84.64,0-35.82,0-71.64,0c-1.7,0-2.11.46-2.08,2.07.11,5.09.07,10.18,0,15.28,0,4.21-2.63,7-6.51,7s-6.61-2.78-6.63-7.1c0-5.09-.06-10.19,0-15.28,0-1.52-.32-2-2-2-5.11.11-10.23,0-15.35,0-11.48,0-19.22,7.65-19.23,18.95,0,10.89.05,21.77-.06,32.65,0,2,.47,2.52,2.55,2.52Q85.78,102.95,149.52,103Z"/><path d="M232.61,242.34a5.59,5.59,0,0,0-3.88-1.35c-1.55-.05-3.12-.05-4.67,0-.93,0-1.33-.07-1.31-1.1q.1-10.09,0-20.23a54.73,54.73,0,0,0-.21-8.4,9.62,9.62,0,0,0-1-4.49,13.1,13.1,0,0,0-2.63-4.93,3.26,3.26,0,0,0-1-1.31,12,12,0,0,0-3.05-2.92,4.33,4.33,0,0,0-1.77-1.27,17.41,17.41,0,0,0-5.59-2.77,21,21,0,0,0-7.65-1.36c-5.89,0-11.77-.06-17.63-.06-6.6,0-13.2,0-19.8.06a7.32,7.32,0,0,1-.76-.23c0-7.13.07-14.28,0-21.41a5.1,5.1,0,0,0-3.45-4.83c-1.89-.8-15.92-1.52-18.61.68a4.69,4.69,0,0,0-2.26,4.78V189c0,1,0,2.09-.08,3.13q-13.11,0-26.2,0c-4,0-7.91,0-11.84.06-.6.05-1.19.09-1.77.11a23,23,0,0,0-10.91,3.55,7.81,7.81,0,0,0-2.4,1.72,7.79,7.79,0,0,0-2.29,2.09,5,5,0,0,0-1.69,2,13.68,13.68,0,0,0-2.86,5.15c-.19.57-.36,1.14-.55,1.71a9.8,9.8,0,0,0-.5,3.3,18.54,18.54,0,0,0,0,3.87V238c0,.72-.08,1.44-.08,2.16,0,.44,0,.87-.66.91-1.77,0-3.55-.11-5.32-.06-3.74.08-6.19,2.53-6,5.9a4.08,4.08,0,0,0,2.13,3.62,5.73,5.73,0,0,0,4,1.33c2.26.06,4.52,0,6.79,0H222.51c1.88,0,3.79,0,5.67,0s3.89-.34,5.12-2a2.88,2.88,0,0,0,1.24-2.09C235.28,245.58,234.59,243.78,232.61,242.34Zm-23.49-1.42a11.33,11.33,0,0,0-1.64,0H92.19c-3.52-.17-3.52-.17-3.69-3V215.72a30.25,30.25,0,0,1,.29-4.74,17.5,17.5,0,0,1,1.81-3.62c.71-.65,1.4-1.31,2.12-2a15.44,15.44,0,0,1,8.43-2.18c19.13.06,38.26,0,57.39,0,13.23,0,26.47,0,39.72,0a13.39,13.39,0,0,1,8.89,3c.42.44.85.91,1.28,1.38.48.82.95,1.67,1.43,2.49,0,.21.12.43.19.64s.07.38.12.55c.36,9.54.07,19.06.19,28.58C210.36,240.69,210.12,241.05,209.12,240.92Z"/><path d="M158.71,154.3a4.22,4.22,0,0,1-1.33,1.77,6,6,0,0,1-2.55,2.1,5,5,0,0,1-2.74,1.14,8.18,8.18,0,0,1-5.13.06,5.15,5.15,0,0,1-2.78-1.18,4.09,4.09,0,0,1-1.66-1.14,7.1,7.1,0,0,1-2.28-2.82,9.67,9.67,0,0,1-1.69-5.54,7.38,7.38,0,0,1,.63-4.17,17.76,17.76,0,0,1,2.29-4.89,6.06,6.06,0,0,1,1.25-2.26,5.5,5.5,0,0,1,1.07-1.82,83.59,83.59,0,0,1,5.67-8.3,24.81,24.81,0,0,1,2.42,3.41,1.24,1.24,0,0,1,.54.78,18.63,18.63,0,0,1,2.48,3.69,37.38,37.38,0,0,1,4.87,9.41,3.46,3.46,0,0,1,.52,2.05A9.89,9.89,0,0,1,158.71,154.3Z"/></svg>