<svg id="Camada_1" data-name="Camada 1" xmlns="http://www.w3.org/2000/svg" viewBox="0 0 300 300"><title>CNPJ</title><path d="M3.52,190.14a24.31,24.31,0,0,0,0-2.7c-.66-5.72,1.17-7.17,6.75-4.81,14.47,6.15,29.12,11.88,43.7,17.78,20.2,8.18,40.32,16.56,60.66,24.4,4.93,1.9,7.15,4.56,7.53,9.6a53,53,0,0,0,5.46,19.35c11.29,23.06,39.47,28.19,58.19,10.47a67.07,67.07,0,0,0,7.38-8.73c3.49-4.69,8.47-5.81,13.67-3.22,2.27,1.13,1.61,2.29.78,3.68-9.64,16.18-22.54,27.73-42,30.53-14.09,2-27.14-.75-39.91-6.59C94.83,265.78,63.76,252.14,33,237.81,13,228.5,4.3,211.63,3.52,190.14Z"/><path d="M275.15,187c.19,14.27-3.08,25.69-10.35,35.53-3.59,4.86-2.87,7.91.63,12.23,8.36,10.3,16.2,21,24.25,31.58.81,1.07,1.69,2.11,2.4,3.26,3.7,6,3.68,12.28,0,14.72s-10.23.58-14.28-4.47c-5.06-6.32-9.88-12.83-14.81-19.26-3.69-4.82-7.72-9.43-11-14.52-3.14-4.86-5.9-5.41-11.36-2.78-35,16.92-76.39-3.27-85.06-41.11-7.76-33.88,14-66.6,48.8-73.27,32.65-6.26,65.45,17.3,70.36,50.61A64,64,0,0,1,275.15,187Zm-60.78,49.81c26.88.1,48.47-20.93,48.68-47.42.21-26.84-21.36-48.87-48-49A47.84,47.84,0,0,0,166.64,188C166.49,215.48,187.23,236.69,214.37,236.79Z"/><path d="M283,57.76c-2.41,7.08-5.1,15.18-7.94,23.24-6,17.18-12.13,34.35-18.36,51.47-.68,1.86-.59,6.35-4,4.29-3.1-1.86-9.59-2.07-7-9.12,6.55-18,12.87-36,19.14-54,4.4-12.68,4.29-12.71-9-16.1-43.36-11.07-86.76-22-130-33.39-7.22-1.91-9.66.2-12.12,6.56C96.14,76,78.29,121.17,60.54,166.4c-2.26,5.75-8.56,6.88-12.65,2.34-1.87-2.09-.08-3.85.59-5.55Q71.16,105.4,94,47.66c4-10,8.17-20,11.76-30.17,2.26-6.4,5.82-8.1,12.35-6.5C169,23.45,219.92,35.66,270.83,48c3.65.89,7.7.83,10.67,3.71C282.9,53.08,283.29,54.79,283,57.76Z"/><path d="M182.83,132.92A91.72,91.72,0,0,0,165,148.5c-.94,1.07-2.09,1.88-3.52,1.5-7.54-2-15.51-3.18-22.18-7.32-4.82-3-6.14-8.25-3.56-13.66s6.91-7.78,12.67-6.2C159.41,125.83,170.3,129.22,182.83,132.92Z"/><path d="M169.55,92.29c1.63-5.34,3.23-10.69,4.92-16,.67-2.12,1.17-4.57,4.46-3.65,3.68,1,2.65,3.4,1.89,5.86-2.34,7.51-4.59,15-6.88,22.56-.82,2.68-.7,6.13-5,5.8-4-.3-5.88-2.64-6.6-6.41C161,93.71,159.59,87,157.94,78.89c-4,6.37-4.4,12.47-6.56,17.91-.76,1.9-.62,4.85-4.19,3.83-3.34-1-3.16-3-2.29-5.75,2.48-7.7,4.76-15.46,7.09-23.2.76-2.52.83-5.77,4.67-5.4s6.85,1.67,7.6,6.19c1.1,6.61,2.6,13.15,3.93,19.73Z"/><path d="M131,169.34c5.45,1.68,11.87,3.62,18.27,5.65,1.6.51,3,1.58,2.32,3.48-2.12,6.43.84,13.32-1.89,19.65-.11.24-1.31.22-1.9,0-7.9-2.49-16-4.53-23.6-7.73-5-2.12-6.72-7.11-5.18-12.52S124.44,169.87,131,169.34Z"/><path d="M210.38,90c0,8.14-6.4,13.86-14.32,12-5-1.15-7,.15-8,4.84-.56,2.66-1,6.17-5.57,4.48-4.13-1.53-2.14-4.31-1.46-6.65,2.29-8,4.9-15.83,7.12-23.8,1-3.73,3.17-4.67,6.49-3.54A80.73,80.73,0,0,1,205.3,81.5C208.68,83.22,210.67,86.2,210.38,90Zm-17.47,1c-.86,3.43.33,4.76,3.17,5,4.27.4,6.36-2,6.8-5.7.42-3.51-2.16-5.57-5.2-5.86C192.41,84,194.7,89.42,192.91,91Z"/><path d="M95.37,158a12.23,12.23,0,0,1,12,12.64A12.42,12.42,0,0,1,94.3,182.23c-6.84-.24-12.45-6.09-12.17-12.69S88.3,157.78,95.37,158Z"/><path d="M111.46,135.24c-7.06.08-12.7-5.1-12.9-11.84-.19-6.4,5.67-12.23,12.49-12.44a12.34,12.34,0,0,1,12.71,12C123.92,129.76,118.5,135.16,111.46,135.24Z"/><path d="M117.06,81.16C116.93,65.7,129.61,55.63,142,61.47a18,18,0,0,1,4.8,3.58c1.82,1.81.91,4-.4,5.47-1.66,1.88-2.66-.4-3.72-1.27-3.61-3-7.53-4.52-11.58-1.28-5,4-6.62,9.67-5.62,15.72.82,5,5,6.39,9.59,6.85,1.87.18,5.11-1.4,4.8,2.58-.23,3-2.87,3.17-5.09,3.35C125.17,97.26,117.14,90.25,117.06,81.16Z"/><path d="M206.52,112.13c3.41.68,4.31-1.61,5-4.08q2.79-9.31,5.54-18.62c.73-2.51,1.45-4.84,4.93-3.81,3.26,1,3.22,3.06,2.35,5.77-2.3,7.23-4.21,14.6-6.77,21.74-2.31,6.46-7.2,8.25-12.71,5.4-2-1-3.13-2.38-2.72-4.77C202.73,110.6,204.57,111.18,206.52,112.13Z"/></svg>