<svg id="Camada_1" data-name="Camada 1" xmlns="http://www.w3.org/2000/svg" viewBox="0 0 300 300"><defs><style>.cls-1{fill:#040404;}</style></defs><title>CPF - documento </title><path d="M193.81,169.39c-1.26-18.09-16.06-32.78-35.24-36.44A26.36,26.36,0,1,0,140,133c-19.22,3.64-34,18.38-35.25,36.51a5.81,5.81,0,0,0,1.44,4.23,5.72,5.72,0,0,0,4,2l.41,0a5.84,5.84,0,0,0,5.82-5.45c1-14.85,15.44-26.48,32.87-26.48s31.84,11.61,32.88,26.43a5.85,5.85,0,0,0,5.82,5.44l.41,0a5.87,5.87,0,0,0,5.43-6.23Zm-59.22-61.11A14.69,14.69,0,1,1,149.27,123,14.7,14.7,0,0,1,134.59,108.28Z"/><path class="cls-1" d="M258.36,60.93a39.46,39.46,0,0,0-.7-8.12C254.37,37.18,241.66,27,225.29,27q-10.5,0-21,0c-9.25,0-18.65,0-28,.07.12-2.92.08-5.83,0-8.66V16.56c-.08-5.82-3.64-9.45-9.3-9.48s-11.29,0-16.93,0-11.49,0-17.23,0c-5.41,0-9,3.55-9.14,9-.11,3.89-.18,7.4,0,11C115,27,106.38,27,98.37,27H75.43a37,37,0,0,0-8.68.87c-15,3.52-25.09,16.39-25.11,32q-.06,35.37,0,70.75v58.82q0,35.13,0,70.27c0,19.26,13.95,33.25,33.12,33.26q34.52,0,69,0h81.54a33.32,33.32,0,0,0,8.79-1c15-3.95,24.27-16.57,24.28-32.92C258.39,187.55,258.39,122.77,258.36,60.93Zm-121.88-37a4.06,4.06,0,0,1,4.06-4.05h18.84a4.05,4.05,0,0,1,4.06,4.05V42.79a4.05,4.05,0,0,1-4.06,4.05H140.54a4.06,4.06,0,0,1-4.06-4.05Zm104.36,163q0,36.26,0,72.52c0,8.67-4.55,14.45-12.47,15.84a21.15,21.15,0,0,1-3.56.19H75.15c-9.89,0-16-6.17-16-16.08q0-99.31,0-198.65c0-10.17,6-16.26,16.18-16.29h26.28c7.37,0,14.74,0,22.15,0a61.37,61.37,0,0,0,0,6.81c.26,5.08,3.64,8.4,8.61,8.43,5.82,0,11.63.07,17.25.07,6.1,0,12.19,0,18.1-.08,5,0,8.43-3.59,8.62-8.81v-.36c.06-2,.13-4,0-6.06q11.81,0,23.6,0h24.5c10.42,0,16.38,6,16.39,16.33q0,35.41,0,70.84Z"/><path class="cls-1" d="M149.32,238.49H210c1.07,0,2.14,0,3.2.06a5.61,5.61,0,0,1,5.18,5,5.7,5.7,0,0,1-3.77,6.19,11.31,11.31,0,0,1-4.32.44H88.1a11.53,11.53,0,0,1-4.32-.44,5.92,5.92,0,0,1-3.84-6.2,5.76,5.76,0,0,1,5.24-5,31.21,31.21,0,0,1,3.21-.07Z"/><path class="cls-1" d="M148.91,214.91h60.65c1.07,0,2.14,0,3.2.07a5.61,5.61,0,0,1,5.18,5,5.72,5.72,0,0,1-3.77,6.19,11.52,11.52,0,0,1-4.32.43q-61.08,0-122.16,0a11.33,11.33,0,0,1-4.32-.44A5.92,5.92,0,0,1,79.53,220a5.78,5.78,0,0,1,5.24-5c1.06-.1,2.14-.07,3.21-.07Z"/><path class="cls-1" d="M149.32,191.32H210c1.07,0,2.14,0,3.2.07a5.6,5.6,0,0,1,5.18,5,5.7,5.7,0,0,1-3.77,6.19,11.31,11.31,0,0,1-4.32.44H88.1a11.53,11.53,0,0,1-4.32-.44,5.93,5.93,0,0,1-3.84-6.2,5.76,5.76,0,0,1,5.24-5c1.06-.11,2.14-.07,3.21-.08Z"/></svg>