<svg id="Camada_1" data-name="Camada 1" xmlns="http://www.w3.org/2000/svg" viewBox="0 0 300 300"><title>email</title><path d="M247.88,38H52.12A42.55,42.55,0,0,0,9.57,80.55v138.9A42.56,42.56,0,0,0,52.12,262H247.88a42.56,42.56,0,0,0,42.55-42.55V80.55A42.56,42.56,0,0,0,247.88,38ZM48.22,59.59H251.76a17.74,17.74,0,0,1,2.44.17,11.07,11.07,0,0,0-2.44,1.82l-91.32,91.34a10.51,10.51,0,0,1-5.58,2.9,27.37,27.37,0,0,1-4.77.42,28.35,28.35,0,0,1-5.94-.64,12.37,12.37,0,0,1-6.09-3.33L45.66,59.88l-.09-.09A17.77,17.77,0,0,1,48.22,59.59ZM269.1,223.06a17.33,17.33,0,0,1-17.34,17.33H48.22a17.35,17.35,0,0,1-17.34-17.33V76.94A15.09,15.09,0,0,1,31,74.8L117,160.73a56.09,56.09,0,0,0,9.64,7.7,54.94,54.94,0,0,0,11.07,5.36,36.48,36.48,0,0,0,23.88.12,51.6,51.6,0,0,0,19.82-12.36l85.19-85.18a10,10,0,0,0,2.15-3.13,16.78,16.78,0,0,1,.4,3.7Z"/></svg>