<svg id="Camada_1" data-name="Camada 1" xmlns="http://www.w3.org/2000/svg" viewBox="0 0 300 300"><title>endereço da igreja</title><path d="M114.53,296.23l-.61-.49c-2.64-2.16-3-5-3-7.3,0-15.16,0-30.57,0-45.48V226.75c0-.65,0-1.52.1-2.41a5.46,5.46,0,0,1,5.45-5.19h.34a5.4,5.4,0,0,1,5.57,4.68,18.11,18.11,0,0,1,.26,3.3v9.74c0,15.51,0,31.54-.06,47.31,0,.16,0,.28,0,.38h.48c6.19-.05,12.59-.07,19-.07s12.86,0,19.45.07h.07v-.05c-.09-15.64-.1-31,0-45.56.07-15.6,10.86-29,25.64-31.81a33.93,33.93,0,0,1,6.4-.62c17.79,0,31.85,14.12,32,32.14.14,15.71.06,31.76,0,45.56v.35h.26c6.21-.06,12.66-.08,19.17-.08,6.31,0,12.88,0,19.55.07h0v-.1c-.07-17.86-.05-36,0-53.58v-3.72a18.08,18.08,0,0,1,.32-3.61,5.4,5.4,0,0,1,5.52-4.41h.28a5.46,5.46,0,0,1,5.45,4.79,18,18,0,0,1,.18,2.77V245c0,14.31,0,29.1,0,43.66,0,1.47,0,5.37-3.87,7.36l-.46.23Zm79.2-11.73c6.76,0,13.59,0,20.28.05,0-5.6,0-11.3,0-16.8q0-3,0-6.06c0-2.33,0-4.66,0-7,0-5.09,0-10.34,0-15.51-.12-11-7.87-20-18-20.79-.65-.05-1.3-.08-2-.08-11.85,0-20.52,8.78-20.6,20.87-.06,8.57,0,17.28,0,25.7,0,6.55,0,13.11,0,19.66C180.15,284.52,187,284.5,193.73,284.5Z"/><path d="M115.31,294.05c-1.79-1.46-2.18-3.37-2.17-5.61.06-20.56,0-41.13,0-61.69,0-.73,0-1.47.08-2.2a3.56,3.56,0,0,1,7-.34,16.64,16.64,0,0,1,.23,2.91c0,19,0,38-.06,57,0,2.25.65,2.6,2.69,2.59q19.22-.15,38.44,0c1.81,0,2.27-.4,2.26-2.24q-.12-22.77,0-45.54c.07-14.71,10-27,23.86-29.68a29.81,29.81,0,0,1,35.81,29.39c.13,15.18.06,30.36,0,45.54,0,2,.37,2.56,2.47,2.55q19.34-.18,38.68,0c1.91,0,2.23-.54,2.22-2.3q-.09-28.65,0-57.29a15.12,15.12,0,0,1,.27-3.15,3.56,3.56,0,0,1,6.95.26,16.43,16.43,0,0,1,.15,2.43q0,31,0,61.94c0,2.35-.45,4.27-2.68,5.41Zm100.86-32.36c0-7.51.06-15,0-22.52-.13-12.15-8.82-22-20-22.95-14-1.11-24.82,8.81-24.92,23-.1,15.17,0,30.35-.05,45.52,0,1.55.33,2.05,2,2q20.56-.11,41.12,0c1.66,0,2-.51,2-2.05C216.13,277,216.17,269.35,216.17,261.69Z"/><path d="M101,227.94a5.47,5.47,0,0,1-3.27-9.85L195,145.73l94.69,71.49a5.47,5.47,0,0,1-6.59,8.72L195,159.39l-90.73,67.47A5.38,5.38,0,0,1,101,227.94Z"/><path d="M101,225.75a3.28,3.28,0,0,1-2-5.91l96-71.38L288.37,219a3.28,3.28,0,0,1-3.95,5.24L195,156.66l-92,68.45A3.3,3.3,0,0,1,101,225.75Z"/><path d="M194.79,156.61a5.48,5.48,0,0,1-5.46-5.45l-.22-57a5.47,5.47,0,1,1,10.93,0l.22,57a5.48,5.48,0,0,1-5.45,5.49h0Z"/><path d="M194.79,154.42a3.29,3.29,0,0,1-3.28-3.27l-.22-57a3.29,3.29,0,0,1,3.27-3.29h0a3.28,3.28,0,0,1,3.28,3.26l.22,57a3.27,3.27,0,0,1-3.26,3.29Z"/><path d="M177.1,118.93a5.47,5.47,0,0,1,0-10.94l35.1-.23a5.47,5.47,0,0,1,.07,10.94l-35.11.23Z"/><path d="M177.1,116.74a3.28,3.28,0,0,1,0-6.56l35.11-.23h0a3.28,3.28,0,0,1,0,6.56l-35.1.23Z"/><path d="M98.48,285.78l-34.2-56.86c-9.51-15.81-19.41-31.76-29-47.18Q29,171.66,22.78,161.56A113.92,113.92,0,0,1,7.93,122.44C1.84,90,11.74,56.9,34.39,34c30-30.41,67.43-29.52,70.72-29.38h.78c40.2,0,63.37,20.07,75.75,37A104.45,104.45,0,0,1,199,78.92L188.59,81a95.43,95.43,0,0,0-15.73-33.48c-15.85-21.46-38.37-32.34-67-32.34h-1.19c-.34,0-35.47-1.43-62.8,26.23-20.21,20.46-29,50-23.58,79.07A103.32,103.32,0,0,0,31.79,156Q38,166.08,44.28,176.15c9.6,15.46,19.53,31.44,29.07,47.31l34.2,56.86Z"/><path d="M104,139.81a41.89,41.89,0,1,1,41.89-41.89A41.93,41.93,0,0,1,104,139.81Zm0-73.18a31.3,31.3,0,1,0,31.3,31.29A31.33,31.33,0,0,0,104,66.63Z"/></svg>