<svg id="Camada_1" data-name="Camada 1" xmlns="http://www.w3.org/2000/svg" viewBox="0 0 300 300"><title>endereço </title><path d="M249.78,83.94c0-.07,0-.16-.06-.25a1.94,1.94,0,0,0-.05-.2,107.31,107.31,0,0,0-17.38-37C219.75,29.36,196.29,9,155.57,9h-.79a91.48,91.48,0,0,0-25.19,3.15A89,89,0,0,0,75.45,47.36q-1.4,1.89-2.64,3.8a101.49,101.49,0,0,0-16.46,77.21,115.53,115.53,0,0,0,15,39.63q6.31,10.23,12.67,20.43c9.7,15.63,19.74,31.77,29.36,47.79l34.64,57.58.36.45a7.45,7.45,0,0,0,11.26.43h0l34.64-57.59c9.63-16,19.66-32.17,29.37-47.79q6.33-10.2,12.67-20.43a115.52,115.52,0,0,0,15-39.63A102.94,102.94,0,0,0,249.78,83.94Zm-8.93,43.33a105,105,0,0,1-13.62,36q-6.31,10.22-12.66,20.41c-9.72,15.66-19.78,31.84-29.44,47.92l-31,51.53-31.52-52.4c-9.67-16.08-19.73-32.26-29.45-47.91q-6.35-10.22-12.65-20.42a104.82,104.82,0,0,1-13.63-36A92.36,92.36,0,0,1,68,87.19,88.87,88.87,0,0,1,81.62,57.27a86.66,86.66,0,0,1,9.17-11,89.9,89.9,0,0,1,43.69-24.19h0a100.32,100.32,0,0,1,17.64-1.5h1.2c.34,0,35.93-1.45,63.6,26.57a88.1,88.1,0,0,1,22.29,38.88c0,.13.05.22.07.28a.09.09,0,0,1,0,.06A92.27,92.27,0,0,1,240.85,127.27Z"/><path d="M153.88,108.49h0a.22.22,0,0,1,0-.06A.14.14,0,0,1,153.88,108.49Z"/><path d="M153.87,150.88a42.42,42.42,0,1,1,42.42-42.42A42.47,42.47,0,0,1,153.87,150.88Zm0-74.12a31.7,31.7,0,1,0,31.7,31.7A31.74,31.74,0,0,0,153.87,76.76Z"/></svg>