<svg id="Camada_1" data-name="Camada 1" xmlns="http://www.w3.org/2000/svg" viewBox="0 0 300 300"><defs><style>.cls-1{fill:#050505;}</style></defs><title>igreja </title><path class="cls-1" d="M45.4,294.43l-.83-.68c-3.63-3-4.09-6.91-4.08-10,.06-20.8.06-42,0-62.4V199.09c0-.9,0-2.09.14-3.31a7.48,7.48,0,0,1,7.48-7.12h.47a7.41,7.41,0,0,1,7.64,6.42,25.44,25.44,0,0,1,.36,4.53V213c0,21.28,0,43.28-.09,64.92,0,.21,0,.38,0,.52h.66c8.5-.06,17.28-.1,26.09-.1s17.65,0,26.69.1h.09v-.07c-.12-21.46-.14-42.49,0-62.51.1-21.4,14.9-39.76,35.18-43.66a47.55,47.55,0,0,1,8.78-.84c24.41,0,43.7,19.37,43.91,44.09.19,21.57.08,43.58,0,62.53,0,.18,0,.34,0,.47h.35c8.52-.07,17.37-.11,26.3-.11,8.65,0,17.68,0,26.82.11h0v-.15c-.09-24.51-.07-49.42,0-73.51v-5.11a24.05,24.05,0,0,1,.43-5,7.4,7.4,0,0,1,7.57-6.06h.38a7.49,7.49,0,0,1,7.48,6.57,24.66,24.66,0,0,1,.25,3.8V224.1c0,19.63,0,39.94.05,59.9,0,2,0,7.38-5.31,10.1l-.64.33Zm108.66-16.1c9.29,0,18.66,0,27.84.07-.07-7.69-.06-15.5-.05-23.06,0-2.77,0-5.54,0-8.32,0-3.19,0-6.39,0-9.58,0-7,0-14.19,0-21.28-.16-15.15-10.8-27.42-24.75-28.53-.89-.07-1.79-.11-2.67-.11-16.27,0-28.16,12-28.27,28.64-.08,11.75-.07,23.7-.06,35.26,0,9,0,18,0,27C135.44,278.35,144.84,278.33,154.06,278.33Z"/><path class="cls-1" d="M46.47,291.43c-2.45-2-3-4.62-3-7.69q.12-42.33,0-84.65c0-1,0-2,.12-3a4.53,4.53,0,0,1,4.64-4.41,4.49,4.49,0,0,1,5,3.94,23.21,23.21,0,0,1,.31,4c0,26.09.08,52.18-.08,78.26,0,3.09.89,3.57,3.69,3.55q26.37-.2,52.74,0c2.49,0,3.12-.56,3.11-3.09q-.18-31.23,0-62.48c.09-20.18,13.76-37.08,32.75-40.72,25.77-4.94,48.9,13.94,49.12,40.33.18,20.82.09,41.65,0,62.48,0,2.7.5,3.52,3.39,3.49q26.53-.23,53.07,0c2.62,0,3.06-.75,3-3.16q-.13-39.3,0-78.6a20.87,20.87,0,0,1,.36-4.33,4.88,4.88,0,0,1,9.54.35,22,22,0,0,1,.21,3.35q0,42.48.05,85c0,3.22-.61,5.85-3.68,7.42ZM184.86,247c0-10.3.08-20.6,0-30.89-.18-16.68-12.11-30.26-27.51-31.49-19.14-1.53-34.05,12.08-34.18,31.5-.15,20.82,0,41.64-.08,62.46,0,2.13.46,2.81,2.71,2.8q28.22-.15,56.42,0c2.28,0,2.72-.7,2.7-2.81C184.8,268.07,184.86,257.55,184.86,247Z"/><path d="M26.79,200.72a7.5,7.5,0,0,1-4.48-13.52L155.82,87.92,285.73,186a7.5,7.5,0,0,1-4.52,13.48A7.42,7.42,0,0,1,276.7,198L155.75,106.66,31.26,199.24A7.43,7.43,0,0,1,26.79,200.72Z"/><path d="M26.79,197.72a4.5,4.5,0,0,1-2.69-8.11L155.8,91.67,283.93,188.4a4.5,4.5,0,1,1-5.43,7.18L155.76,102.91,29.47,196.83A4.49,4.49,0,0,1,26.79,197.72Z"/><path d="M155.53,102.84a7.51,7.51,0,0,1-7.5-7.47l-.3-78.2a7.5,7.5,0,1,1,15-.06l.3,78.2a7.51,7.51,0,0,1-7.47,7.53h0Z"/><path d="M155.53,99.84a4.5,4.5,0,0,1-4.5-4.48l-.3-78.2a4.49,4.49,0,0,1,4.48-4.52h0a4.51,4.51,0,0,1,4.5,4.49l.3,78.2a4.5,4.5,0,0,1-4.48,4.51Z"/><path d="M131.26,51.14a7.5,7.5,0,0,1,0-15l48.16-.31a7.5,7.5,0,0,1,.1,15l-48.17.31Z"/><path d="M131.26,48.14a4.5,4.5,0,0,1,0-9l48.16-.31h0a4.5,4.5,0,0,1,0,9l-48.16.31Z"/></svg>