<svg id="Camada_1" data-name="Camada 1" xmlns="http://www.w3.org/2000/svg" viewBox="0 0 300 300"><defs><style>.cls-1{fill:#020202;}</style></defs><title>senha</title><path class="cls-1" d="M70,296c-.19-.84-1-.84-1.56-1C57,292,49.71,281.39,49.9,269.51c.22-14,.05-28,.05-42q0-45.45,0-90.9c0-10.8,4.44-18.94,14.1-24A24.43,24.43,0,0,1,77,110.05c2.32.13,2.75-.68,2.76-2.84.08-12.49-.77-25,.38-37.47,2.39-25.69,15.11-45,38-56.74C141.83.81,165.66,2.19,188.19,16.47c17.5,11.09,27.89,27.33,31.26,47.87,1.9,11.57.78,23.25,1,34.87.07,2.84.15,5.69,0,8.52-.13,2,.64,2.37,2.41,2.3,7-.28,13.29,1.42,18.64,6.11a24.47,24.47,0,0,1,8.55,16.72c.12,1.31.15,2.64.15,4q0,66.18,0,132.36c0,11.05-4.52,19.31-14.46,24.35a58.84,58.84,0,0,1-6.7,2.46Zm79.83-21.53h73.3c4.89,0,5.66-.75,5.66-5.57q0-65.91,0-131.81c0-4.73-.92-5.66-5.65-5.66q-73,0-146,0c-4.74,0-5.66.92-5.66,5.64q0,65.91,0,131.81c0,4.83.77,5.59,5.65,5.59ZM150.08,110q19.89,0,39.78,0c2.92,0,6.83,1,8.49-.47,1.9-1.69.62-5.69.58-8.68-.18-10.78.77-21.6-.55-32.35C195,41.08,167.26,21.61,140.23,27.57c-23.06,5.08-38.77,24.35-39,48-.1,10.51,0,21-.07,31.53,0,2.3.44,3,2.89,3C119.39,109.94,134.73,110,150.08,110Z"/></svg>