<svg id="Camada_1" data-name="Camada 1" xmlns="http://www.w3.org/2000/svg" viewBox="0 0 300 300"><title>não ver senha </title><path d="M157.25,189.21c0,3.25.13,6.51,0,9.76-.21,4.33-3.23,7.25-7.22,7.25a7.06,7.06,0,0,1-7.21-7.24c-.19-6.24-.26-12.49,0-18.71.13-3.14-1-3.94-3.89-4a118.42,118.42,0,0,1-23.33-3.09c-2.5-.57-3,.44-3.48,2.43-1.48,5.9-3.1,11.77-4.74,17.63-1.33,4.78-4.9,7.26-8.88,6.27-4.3-1.07-6.4-4.94-5.15-9.85q2.24-8.85,4.74-17.62c.63-2.18.45-3.34-2-4.11a133,133,0,0,1-22.45-9.31c-2-1-2.86-.84-4,1.21-2.87,5.37-6,10.6-9.1,15.84-2.7,4.58-6.68,5.94-10.52,3.7s-4.67-6.42-2.11-10.92c3.07-5.42,6.15-10.82,9.38-16.14,1-1.63.86-2.46-.76-3.51a149.43,149.43,0,0,1-20.27-15.6c-1.4-1.29-2.16-.88-3.27.26-4.17,4.26-8.41,8.46-12.64,12.67s-8.39,4.8-11.72,1.58-2.95-7.56,1.44-12c4-4.05,8-8.15,12.11-12.05,1.76-1.64,1.88-2.61.19-4.48-3.53-3.92-6.81-8.08-10-12.28-3.49-4.57-3.16-9.1.6-11.74s7.77-1.44,11.11,3c23.38,31.27,53.81,52.36,92.16,60,64.43,12.84,117.34-7.37,158.59-58.38.68-.84,1.26-1.76,1.94-2.61,2.84-3.56,7.06-4.38,10.37-2s4.12,6.92,1.27,10.75c-3.3,4.45-6.71,8.87-10.44,13-1.95,2.15-1.74,3.25.23,5.09,4.26,4,8.33,8.16,12.41,12.33,3.85,3.95,4.12,8.28.85,11.44s-7.37,2.65-11.15-1.06c-4.35-4.28-8.7-8.57-12.93-13-1.38-1.44-2.26-1.74-3.89-.23a136.16,136.16,0,0,1-19.64,15.08c-2,1.23-2,2.2-.84,4.1,3.2,5.18,6.19,10.49,9.18,15.79,2.54,4.51,1.67,8.74-2.12,10.93s-7.86.81-10.52-3.73c-3.09-5.26-6.15-10.52-9.14-15.83-.88-1.58-1.48-2.51-3.6-1.39a136.15,136.15,0,0,1-23.19,9.63c-2.12.66-2.21,1.81-1.71,3.61,1.66,6,3.28,12,4.82,18,1.25,4.85-.89,8.77-5.2,9.81-4,1-7.51-1.5-8.84-6.3-1.63-5.86-3.28-11.72-4.74-17.62-.51-2.08-1.05-3-3.5-2.4a124.84,124.84,0,0,1-23.73,3.12c-2.51.08-3.69.78-3.46,3.57.26,3.09.06,6.23.06,9.35Z"/></svg>