<svg id="Camada_1" data-name="Camada 1" xmlns="http://www.w3.org/2000/svg" viewBox="0 0 300 300"><title>nome - sobrenome - usuario</title><path d="M20.3,298l-.68,0a9.91,9.91,0,0,1-9.22-10.55C14.8,222.24,76.12,171.17,150,171.17s135.05,51,139.59,116a9.91,9.91,0,0,1-19.77,1.38C266,233.84,213.39,191,150,191s-116.14,43-119.84,97.78A9.91,9.91,0,0,1,20.3,298Z"/><path d="M150,160.4a78.7,78.7,0,1,1,78.7-78.7A78.78,78.78,0,0,1,150,160.4Zm0-137.59A58.9,58.9,0,1,0,208.89,81.7,59,59,0,0,0,150,22.81Z"/></svg>