<svg id="Camada_1" data-name="Camada 1" xmlns="http://www.w3.org/2000/svg" viewBox="0 0 300 300"><title>sexo </title><path d="M255.26,75.9c-4.47.1-8.58,1.88-12.9,2.72-7.33,1.43-13.31-4.12-12.19-11.44A9,9,0,0,1,237,59.36c12.58-3.34,25.17-6.62,37.83-9.64a9.44,9.44,0,0,1,11.49,7q5.07,18.52,9.58,37.2a9.75,9.75,0,0,1-7,12c-5.56,1.39-10.72-1.6-12.44-7.33-1.09-3.62-2-7.29-3-10.93-.05-.18-.27-.31-.42-.48-1.07,0-1.27,1-1.66,1.67-5.71,9.79-11.33,19.65-17.15,29.37-1.56,2.62-1.14,4.13,1.08,6.11,32.42,29,37,75.46,10.89,109.3-28.92,37.48-84.91,41.23-118.5,7.93-26.43-26.2-31.6-64.73-13.06-97.27C155.9,107,134.76,61.6,92.53,55c-38.1-6-68,23.67-68.46,57.21-.45,30.51,20.27,55.38,50,60.34a59.35,59.35,0,0,0,27.38-2c1.21-.37,2.4-.8,3.62-1.07a10,10,0,0,1,6.13,18.93A59.59,59.59,0,0,1,97,192.27c-2.38.35-3.56,1.39-3.54,3.87.06,5.78,0,11.55,0,17.32,0,2.51,1.08,3.64,3.6,3.63,5,0,10.08-.1,15.12.1a10.42,10.42,0,0,1,9.48,7.11,9.91,9.91,0,0,1-3.08,10.55,9.8,9.8,0,0,1-6.67,2.36c-4.83,0-9.66.09-14.49,0-2.78,0-4,1.12-4,3.94q.11,7.4,0,14.8c-.1,6-4,10.17-9.54,10.45a10.14,10.14,0,0,1-10.39-9.7c-.33-5-.13-10.07-.19-15.11-.05-3.83-.53-4.31-4.44-4.35-4.51,0-9,0-13.54-.06-5.87-.13-10.25-4.25-10.39-9.63-.14-5.67,3.93-10,10-10.37,4.61-.24,9.23-.07,13.85-.13,3.92,0,4.45-.53,4.48-4.32,0-5.25-.08-10.5,0-15.75.07-3-1.12-4.23-4.06-4.81-25-4.95-43.84-18.53-56.08-40.86C-13.75,102.22,19.28,39.85,75,34.43c48.53-4.73,89.22,32.78,88.27,81.51a79.11,79.11,0,0,1-11,38.35c-17,29.6-7.19,65.66,22.5,82.5,38.51,21.83,87.77-6.56,88.17-50.82.31-35-26.83-61.74-61.84-60.91-5.81.14-11.39,1.61-17,3.08a9.84,9.84,0,0,1-12.42-11.61c.8-4.14,3.49-6.54,7.4-7.78a78.46,78.46,0,0,1,50.12.49c6.17,2.08,5.4,2.82,8.93-3.28q7.65-13.21,15.33-26.42c.68-1.18,1.22-2.43,1.83-3.65Z"/></svg>