<svg id="Camada_1" data-name="Camada 1" xmlns="http://www.w3.org/2000/svg" viewBox="0 0 300 300"><defs><style>.cls-1{fill:#050505;}</style></defs><title>telefone </title><path class="cls-1" d="M218.29,292.14l-26.55-2.2-26.57-5.62-27.54-10.11c-22.56-10.33-43.21-23.54-61.44-40.49-21.8-20.27-38.45-44.21-51.15-71l-9.87-26.46q-2.89-12.81-5.8-25.64C8.07,99.48,6.8,88.37,6.49,77.13,6,58.35,13.2,43.77,28.63,33.15a6.56,6.56,0,0,0,1-1,2,2,0,0,0,1.84-1C39.8,27,48.72,25.48,57.94,25.25c2.66.08,5.32.12,8,.26,6.2.33,12.57-1.12,18.53,1.75l3.23,3.93q4.45,13.12,8.9,26.26c2.5,9,5.49,17.87,8.86,26.59a46.2,46.2,0,0,0,3.5,10.51c0,1.86,0,3.72,0,5.58-1.37,3.37-4.25,5.48-6.67,8-4.58,3.61-9.1,7.32-13.77,10.81-1.68,1.24-1.67,2.47-.93,4,2.28,4.82,4.12,9.87,7.25,14.26a98.14,98.14,0,0,0,13.49,21.08c1.55,2.36,3,4.78,5.32,6.53a117.54,117.54,0,0,0,24.77,24,7.56,7.56,0,0,0,3.64,2.63,90.09,90.09,0,0,0,21.12,13.28c3.72,2.68,8.06,4.13,12.11,6.15,2,1,3.36.58,4.76-1.24,3.75-4.86,7.69-9.56,11.56-14.32,4.9-6.05,7.61-6.87,15.17-4.43q19,6.16,38.06,12.39l24.66,9,3.2,5q.31,13.16.62,26.3a72.71,72.71,0,0,1-4.19,20.19l-2.7,5.3c-6.12,8.67-13.69,15.62-23.55,19.86C235,292,226.64,292.13,218.29,292.14Zm34-48.69c.06-2.65.15-5.3.16-8,0-8.32,0-8.32-8.45-10.29-8.72-3.27-17.5-6.37-26.49-8.83l-2.53-.64c-9.91-4.94-9.91-4.94-14,1.07a105.07,105.07,0,0,0-11.34,14c-4.59,4.19-9.65,4.39-15.13,2-2.41-1.07-4.95-1.81-7.44-2.7-1.65-.86-3.26-1.82-5-2.59-19.82-8.92-37.1-21.55-52.95-36.28l-1.85-1.94c-1-1.18-2-2.41-3.13-3.52A187.36,187.36,0,0,1,85.12,162.3c-5.52-7.73-9.33-16.69-13.9-25.11-1.69-4.18-3.29-8.41-5.11-12.54-1.91-4.32-2.63-8.62-.65-13.09,4.55-3.83,9.06-7.71,13.67-11.48,7.91-6.47,7.93-6.44,4.07-16.29-2.64-8.87-5.47-17.67-8.85-26.28C71.72,46,71.72,46,60.31,46.12c-.78,0-1.57.1-2.36.15-9-.66-17,1.5-23.05,8.62-3.64,2.82-5.3,6.83-6.64,11-.88.44-.73,1.29-.78,2a153.94,153.94,0,0,0,3.14,42.66c1.58,9.11,3.59,18.09,7.12,26.68a127.29,127.29,0,0,0,12.39,28.75c2.14,4.56,4.34,9.08,7.58,13a59.87,59.87,0,0,0,8.57,12.58A129,129,0,0,0,84.4,212.7a21.73,21.73,0,0,0,5.65,5.46,131.28,131.28,0,0,0,21.08,17.26,76.63,76.63,0,0,0,14.17,9,57.56,57.56,0,0,0,12.35,6.61,122.29,122.29,0,0,0,26.43,10.78,118.59,118.59,0,0,0,26.65,6.5A91.18,91.18,0,0,0,214.52,271a19.67,19.67,0,0,0,7.53.16,4.16,4.16,0,0,0,3.91,0,22.64,22.64,0,0,0,18-7.67C250,258.15,252.54,251.38,252.3,243.45Z"/><path class="cls-1" d="M160.43,5.32a3.17,3.17,0,0,0,2.75.22,18,18,0,0,0,6.73.65l20.89,4.68a291.15,291.15,0,0,1,27.53,11.42c16.72,10,31.62,22.15,44,37.24l7,9.43,9.47,16.41c3.7,8.24,6.8,16.7,9.71,25.25q2.37,13.27,4.72,26.57c-.43,5.24-2.38,9.53-7.82,11.12-6.37,1.87-12.21-2.68-13-9.95-1.11-9.83-2.48-19.6-6.23-28.87-7.25-22.53-20.55-40.93-38.67-55.9-9.86-8.15-20.58-15-32.89-19-4.81-3.37-10.84-3-16-5.28a38.83,38.83,0,0,0-13.42-2.23,17.76,17.76,0,0,1-11.38-3.37,9.45,9.45,0,0,1-3.59-10.1C151.4,8.32,155.37,6.08,160.43,5.32Z"/><path class="cls-1" d="M245.25,110.44a120.05,120.05,0,0,1,6.7,26.71c.23,4.89-2.1,8.34-6.08,10.86-9,1.69-12.35-.76-15.06-10.89a61.6,61.6,0,0,0-8.65-26.52,5.51,5.51,0,0,0-2-3.76c-12.84-21.29-31.42-34.32-55.94-38.75-7.06-1-13.86-2.39-14.42-11.55,1.84-7.79,4.91-9.84,14.44-9.64a149.07,149.07,0,0,1,25.4,6.91C215.25,65.73,234.06,84.35,245.25,110.44Z"/><path class="cls-1" d="M161.4,109.59c-.87-1.18-2.29-.82-3.45-1.17-5.51-1.69-8.79-6.52-7.87-11.75s5.46-8.78,11.28-8.52l1.85.1a74.71,74.71,0,0,1,26.5,12.93l8.95,9.3c5,7.4,9.31,15.12,11.24,24a24.88,24.88,0,0,1,.63,6.48c-5.18,9.44-12.43,10.37-19.53,2.51-.95-2.76-1.05-5.79-2.65-8.34q-5.94-18.27-24.1-24.56A3.48,3.48,0,0,0,161.4,109.59Z"/></svg>