<svg id="Camada_1" data-name="Camada 1" xmlns="http://www.w3.org/2000/svg" viewBox="0 0 300 300"><title>ver senha </title><path d="M140.47,242.16C89.74,239.68,43.66,216.58,9.28,171c-3.43-4.55-3.43-7.13,0-11.6,3.28-4.29,6.6-8.56,10.21-12.56,1.83-2,1.68-3.12-.23-4.9-4.44-4.17-8.69-8.55-13-12.9-3.72-3.81-4-8.17-.87-11.37s7.59-2.94,11.38.78c4.45,4.37,8.89,8.75,13.21,13.24,1.5,1.56,2.45,2,4.27.28a136.17,136.17,0,0,1,20.07-15.4c1.85-1.16,1.85-2.11.8-3.85-3.29-5.45-6.43-11-9.54-16.52C43,91.63,44,87.28,48,85.12s7.8-.77,10.45,3.7c3.25,5.47,6.47,11,9.53,16.52,1,1.89,1.94,2,3.78,1.11a143.75,143.75,0,0,1,23.33-9.63c2.42-.73,2.45-2,1.88-4Q94.4,83.67,92,74.43c-1.21-4.74.91-8.59,5.18-9.76,3.91-1.06,7.84,1.36,9.1,5.81,1.73,6.11,3.43,12.24,4.92,18.41.55,2.31,1.14,3.18,3.83,2.57a122.8,122.8,0,0,1,23.84-3.11c2.84-.07,3.79-1.06,3.68-3.94-.22-6-.14-11.92-.06-17.87.07-5.46,2.83-8.67,7.33-8.76,4.66-.1,7.5,3.19,7.56,8.91.06,6,.15,11.92,0,17.87-.09,2.66.73,3.66,3.41,3.76a128.82,128.82,0,0,1,24.66,3.28c2.4.56,2.77-.63,3.23-2.41,1.56-6,3.19-12,4.85-18,1.42-5.12,5.15-7.66,9.35-6.46s6.28,5.11,5,10.22c-1.56,6-3.17,12-4.87,18-.59,2.08-.28,3.2,2,3.9a139.22,139.22,0,0,1,23.31,9.68c1.94,1,2.77.53,3.75-1.23,3.09-5.56,6.3-11,9.54-16.51,2.64-4.46,6.58-5.78,10.45-3.64S257,91.7,254.4,96.23c-3.12,5.54-6.27,11.06-9.55,16.51-1.08,1.78-.93,2.7.87,3.84A142.17,142.17,0,0,1,265.79,132c1.87,1.74,2.81,1.17,4.27-.36,4-4.19,8.19-8.26,12.31-12.36,4.52-4.49,8.95-5,12.28-1.55s2.71,7.69-1.86,12.26c-4.11,4.12-8.15,8.32-12.38,12.31-1.72,1.61-1.61,2.54-.09,4.27,3.73,4.26,7.18,8.78,10.73,13.21,2.81,3.49,2.8,7,.12,10.6-27.17,36.75-63,59.86-107.94,68.73C171.1,241.49,158.84,242.5,140.47,242.16Zm69.39-127.63c-.35,0-.92-.19-1,0-.29.43.11.65.5.77.61.91,1.19,1.85,1.84,2.73,16.85,22.94,20.42,47.83,11,74.63-3,8.47-7.86,15.9-13.72,23.25a9.16,9.16,0,0,0,1.79-.19A160.42,160.42,0,0,0,275,167.12c1.4-1.74.91-2.75-.28-4.23C257.2,141.23,235.74,124.92,209.86,114.53Zm-119.7,0c-25.88,10.32-47.25,26.7-64.81,48.23-1.57,1.93-1.36,3.08.12,4.9a159.74,159.74,0,0,0,55.41,44c3.3,1.59,6.52,3.41,10.74,4.33-.75-1-1.11-1.56-1.52-2.07C75.4,195.47,70.2,174.51,74,151.3c2.2-13.53,8.44-25.27,16.68-36.05.37-.12.78-.32.5-.75C91.07,114.36,90.51,114.51,90.16,114.53Zm-2.48,50.35a62.31,62.31,0,1,0,63-62.11A62.21,62.21,0,0,0,87.68,164.88Z"/><path d="M209.34,115.26c-.39-.12-.79-.34-.5-.77.1-.15.67,0,1,0C209.69,114.77,209.52,115,209.34,115.26Z"/><path d="M90.16,114.53c.35,0,.91-.17,1,0,.28.43-.13.63-.5.75Z"/></svg>